<svg width="186" height="54" viewBox="0 0 186 54" fill="none" xmlns="http://www.w3.org/2000/svg">
<path d="M158.323 0.00830078C154.871 0.0082568 151.535 1.24911 148.93 3.50189C146.326 5.75468 144.63 8.86738 144.155 12.2657C140.73 12.7331 137.591 14.417 135.319 17.0062C133.047 19.5953 131.796 22.9144 131.796 26.3497V53.8571H134.723C138.174 53.8582 141.508 52.6192 144.112 50.3687C146.715 48.1181 148.412 45.0078 148.888 41.6117C148.983 40.9526 149.029 40.2875 149.024 39.6218V17.1288H171.699C172.355 17.1295 173.011 17.0856 173.661 16.9975C176.987 16.5371 180.044 14.9297 182.298 12.4563C184.552 9.98292 185.86 6.80091 185.992 3.46663C185.992 3.28356 185.992 3.1005 185.992 2.91743V0.00830078H158.323ZM144.131 41.2217C144.131 41.357 144.131 41.4883 144.131 41.6196C144.029 43.5196 143.196 45.3081 141.804 46.6148C140.412 47.9215 138.568 48.6465 136.654 48.6397V24.5588C136.655 22.5907 137.442 20.7035 138.842 19.3118C140.243 17.9201 142.142 17.1378 144.122 17.1367L144.131 41.2217ZM181.106 5.2137C180.902 9.01428 177.502 12.0627 173.661 12.2537C173.537 12.2537 173.405 12.2537 173.285 12.2537H149.068C149.068 10.2863 149.855 8.3995 151.255 7.00834C152.655 5.61718 154.553 4.83563 156.533 4.83563H181.138C181.138 4.96298 181.138 5.08237 181.138 5.20573" fill="#00C1DE"/>
<path d="M183.077 0.000488281C182.913 0.000488281 182.749 0.000488281 182.584 0.000488281C179.215 0.118175 175.996 1.41381 173.494 3.65907C170.992 5.90433 169.368 8.9551 168.908 12.2738H173.313C173.438 12.2738 173.566 12.2738 173.714 12.2738C173.811 10.376 174.638 8.58786 176.023 7.27797C177.408 5.96807 179.246 5.23637 181.159 5.23374V29.3147C181.159 30.2893 180.965 31.2545 180.59 32.155C180.215 33.0554 179.665 33.8737 178.971 34.5629C178.278 35.2521 177.454 35.7988 176.548 36.1718C175.642 36.5447 174.671 36.7367 173.69 36.7367V16.9976C173.041 17.0859 172.387 17.1297 171.731 17.1289H168.792V36.7447H149.057V39.6419C149.059 40.3075 149.013 40.9725 148.921 41.6317H168.784C168.784 43.5991 167.998 45.4859 166.598 46.8771C165.198 48.2683 163.299 49.0498 161.319 49.0498L145.701 48.803L136.69 48.6598C136.69 44.6801 140.178 41.8267 144.143 41.6397C144.143 41.5083 144.143 41.377 144.143 41.2417V36.88C140.726 37.3568 137.598 39.0441 135.333 41.6312C133.069 44.2184 131.822 47.5313 131.82 50.96V53.8652H159.481C162.937 53.8647 166.276 52.6212 168.881 50.3644C171.487 48.1077 173.182 44.9902 173.654 41.5879C177.074 41.1144 180.206 39.428 182.473 36.8395C184.74 34.2511 185.989 30.9354 185.988 27.5039V0.000488281H183.077Z" fill="#60269E"/>
<path d="M108.344 6.50323V17.4911C108.344 22.0836 106.61 24.539 102.617 24.539C101.176 24.5424 99.7564 24.1927 98.4837 23.5207C97.211 22.8488 96.1246 21.8754 95.3207 20.6867C95.4329 19.9398 95.4891 19.1855 95.4889 18.4303V6.49129H91.5483V17.4791C91.5483 22.0717 89.8142 24.5271 85.8215 24.5271C84.2771 24.5307 82.7592 24.1275 81.4226 23.3585C80.086 22.5896 78.9784 21.4823 78.2125 20.1495C78.2794 19.5775 78.3115 19.0021 78.3086 18.4263V6.4873H74.372V17.4752C74.372 21.8528 72.7981 24.2804 69.2139 24.5072H48.0128C44.2123 24.0296 41.0285 20.4042 41.0285 16.0823C41.0285 12.1026 43.4954 10.3913 48.1209 10.3913H56.5829V6.50323H47.1718C41.5011 6.50323 37.4523 9.37654 37.4523 15.1192C37.4523 19.3257 39.7951 22.6009 42.9708 24.5351H21.7177V6.50323H0V18.4422C0 24.0814 2.89141 28.1008 8.67024 28.1008C12.9032 28.1008 16.1992 25.7767 18.1455 22.6208L18.1775 22.5691V28.0969H69.8106C73.7913 28.0372 76.3703 26.0434 77.5517 22.9233C79.506 25.92 82.7298 28.0969 86.8187 28.0969C90.7433 28.0969 93.3344 26.2423 94.5919 23.2894C96.5702 26.0951 99.6859 28.0969 103.615 28.0969C109.393 28.0969 112.285 24.0774 112.285 18.4382V6.49924L108.344 6.50323ZM18.1775 17.2841C18.1728 17.3881 18.1621 17.4918 18.1455 17.5945C17.6649 21.3712 14.0166 24.539 9.66742 24.539C5.66268 24.539 3.94065 22.0836 3.94065 17.4911V10.0252H18.1775V17.2841Z" fill="black"/>
<path d="M14.837 2.10948C14.8362 2.52333 14.712 2.92766 14.48 3.27138C14.2481 3.6151 13.9188 3.88278 13.5339 4.0406C13.1489 4.19843 12.7255 4.23931 12.3171 4.15809C11.9088 4.07687 11.5338 3.8772 11.2396 3.58429C10.9454 3.29138 10.7452 2.91838 10.6642 2.51243C10.5833 2.10648 10.6252 1.68579 10.7848 1.30352C10.9443 0.921251 11.2143 0.594554 11.5606 0.364714C11.907 0.134875 12.3141 0.0122078 12.7305 0.012207C13.0075 0.0122065 13.2817 0.0664784 13.5376 0.171925C13.7934 0.277372 14.0258 0.431927 14.2214 0.62673C14.4171 0.821532 14.5722 1.05276 14.6778 1.30719C14.7834 1.56162 14.8375 1.83425 14.837 2.10948Z" fill="black"/>
<path d="M10.4563 2.10949C10.4563 2.52446 10.3325 2.93011 10.1004 3.27509C9.8683 3.62007 9.53846 3.88889 9.15258 4.04751C8.7667 4.20613 8.34214 4.24742 7.93263 4.16617C7.52313 4.08493 7.14708 3.88478 6.85208 3.59107C6.55708 3.29737 6.3564 2.9233 6.27542 2.51621C6.19444 2.10912 6.23679 1.68729 6.39715 1.30413C6.5575 0.920973 6.82865 0.593707 7.17624 0.363734C7.52384 0.133761 7.93226 0.0114234 8.34985 0.0122108C8.90889 0.013265 9.44467 0.234697 9.8396 0.627899C10.2345 1.0211 10.4563 1.55394 10.4563 2.10949Z" fill="black"/>
<path d="M11.9137 37.5844L10.3678 39.805C9.10635 38.7425 7.96502 38.1774 6.65947 38.1774C4.92542 38.1774 3.78405 39.2161 3.78405 40.5134C3.78405 41.6715 4.61705 42.5908 7.27619 43.3231C9.70306 43.9877 13.2833 44.8592 13.2833 48.7075C13.2833 51.7798 11.2809 53.9965 6.84368 53.9965C4.27664 53.9965 2.23423 53.0772 0.0957031 50.8128L1.92587 48.823C2.89902 50.0487 4.56097 51.35 6.46322 51.35C8.46559 51.35 10.2878 50.5541 10.2878 48.8468C10.2878 47.5694 9.69505 46.6978 6.77159 45.9655C4.36875 45.3766 0.876632 44.314 0.876632 40.5094C0.876632 37.5128 3.20738 35.5508 6.67548 35.5508C8.6209 35.5494 10.496 36.2737 11.9297 37.5804" fill="black"/>
<path d="M42.943 53.5745H31.2051L31.2251 35.9805H42.5865V38.6986H33.9844V43.5378H41.9418V46.1366H33.9844V50.8604H42.943V53.5745Z" fill="black"/>
<path d="M64.4683 50.4107L63.1627 53.5746H60.2393L67.8202 35.9805H70.1229L77.8962 53.5746H74.9006L73.595 50.4107H64.4683ZM69.0297 39.4746L65.5135 47.9274H72.5498L69.0297 39.4746Z" fill="black"/>
<path d="M98.7769 50.4107L97.4713 53.5746H94.5479L102.129 35.9805H104.436L112.205 53.5746H109.209L107.904 50.4107H98.7769ZM103.342 39.4746L99.8101 47.9274H106.858L103.342 39.4746Z" fill="black"/>
</svg>
